<svg width="1095" height="402" viewBox="0 0 1095 402" fill="none" xmlns="http://www.w3.org/2000/svg">
<path d="M159.97 127.369C159.97 127.369 163.372 129.07 171.878 129.637C180.383 130.204 186.053 129.637 186.053 129.637L181.517 280.469L92.4924 325.831C92.4924 325.831 128.783 271.396 141.258 218.095C153.732 164.793 159.97 127.369 159.97 127.369Z" fill="#FFC400"/>
<rect x="226.699" y="145.343" width="41.2302" height="181.951" fill="#FFC300"/>
<path d="M250.266 94.9882C250.266 94.9882 245.942 93.5816 244.39 85.9532C242.838 78.3249 232.672 75.9743 232.672 75.9743C144.594 64.3162 91.8508 64.2288 54.9608 76.238C41.3836 80.6579 31.3336 89.6129 21.1919 97.7555L14.9466 121.899L14.9093 148.986L14.8501 186.198C14.8501 186.198 115.091 140.872 163.233 122.976C211.374 105.081 250.266 94.9882 250.266 94.9882Z" fill="#FFC400"/>
<path d="M232.296 106.305C232.296 106.305 229.463 107.399 236.543 112.243C243.624 117.088 245.516 125.856 245.516 125.856C245.516 125.856 240.71 140.939 210.036 180.685C179.362 220.43 97.7936 304.43 97.7936 304.43L3.50784 242.583C3.50784 242.583 21.0142 224.828 122.509 163.048C224.004 101.268 232.296 106.305 232.296 106.305Z" fill="#FFC400"/>
<path d="M231.093 140.858C231.093 140.858 224.426 137.527 231.093 142.086C237.761 146.644 247.237 149.364 247.237 149.364C239.696 192.847 235.214 219.288 228.492 253.796C224.907 282.478 224.907 283.375 179.192 347.826L95.8382 314.938C166.151 243.492 166.151 242.925 231.093 140.858Z" fill="#FFEB52"/>
<path d="M5.48759 175.116L213.703 104.561L227.596 129.502L9.56515 235.32L5.48759 175.116Z" fill="#FFEB52"/>
<circle cx="139.153" cy="267.653" r="81.8906" fill="#FFA600" stroke="#05451F" stroke-width="12"/>
<circle cx="139.153" cy="267.653" r="62.941" fill="#FFC300"/>
<path d="M127.569 123.235C116.908 136.42 125.853 155.457 125.853 155.457C125.853 155.457 138.765 166.516 155.55 151.747C172.334 136.978 170.753 105.609 170.753 105.609C170.753 105.609 138.23 110.05 127.569 123.235Z" fill="#0FB227" stroke="#05451F" stroke-width="12"/>
<path d="M81.6026 148.132C96.4981 161.247 119.443 151.833 119.443 151.833C119.443 151.833 133.229 137.377 116.83 117.046C100.431 96.7144 63.4003 96.8988 63.4003 96.8988C63.4003 96.8988 66.7072 135.017 81.6026 148.132Z" fill="#0FB227" stroke="#05451F" stroke-width="12"/>
<path d="M86.4185 117.955C86.4185 117.955 109.1 138.935 121.008 143.472C130.607 147.129 149.051 128.307 155.84 120.872C156.73 119.847 157.597 118.872 158.432 117.955C158.432 117.955 157.473 119.084 155.84 120.872C140.224 138.878 117.587 172.573 135.184 183.731L110.801 188.268C122.433 169.507 107.71 143.245 94.357 126.812C91.5666 123.378 88.8361 120.373 86.4185 117.955Z" fill="#05451F"/>
<path d="M208.553 247.358C212.592 257.362 212.005 276.843 207.543 276.843C203.081 276.843 197.443 264.733 195.929 251.57C194.414 238.406 190.482 233.182 194.944 233.182C199.406 233.182 204.513 237.353 208.553 247.358Z" fill="white"/>
<path d="M192.413 216.92C195.248 219.755 196.171 223.157 192.413 223.157C188.655 223.157 187.309 223.302 182.206 217.631C177.103 211.961 176.18 208.981 179.938 208.981C183.696 208.981 189.578 214.085 192.413 216.92Z" fill="white"/>
<path d="M9.13525 258.478V287.397V315.182C9.13525 316.542 21.3876 339.193 29.7041 348.832C42.557 356.771 68.4894 372.988 69.3967 374.349C70.3039 375.71 112.336 387.006 131.048 394L170.68 386.897C192.487 384.834 226.223 368.534 228.492 367.627C231.327 366.493 258.064 336.729 259.765 334.461C261.126 332.646 266.003 310.645 268.271 299.872V253.795L250.126 258.478L205.33 276.623L174.143 294.768L152.028 318.584L139.554 332.193L131.048 323.12L107.8 298.171L80.5818 276.623L44.8585 265.282L9.13525 258.478Z" fill="#0FB227"/>
<path d="M9.70264 286.83C44.2918 294.39 116.305 326.182 127.646 392.865" stroke="#05451F" stroke-width="12"/>
<path d="M9.13525 254.692C50.8772 258.048 138.894 289.277 157.026 387.346" stroke="#05451F" stroke-width="12"/>
<path d="M270.539 287.397C240.864 291.744 176.638 316.883 157.132 382.659" stroke="#05451F" stroke-width="12"/>
<path d="M270.539 251.107C241.242 254.887 174.256 276.964 140.688 335.028" stroke="#05451F" stroke-width="12"/>
<path d="M218.994 71.8457C201.896 89.4589 206.479 159.215 273.307 149.376C275.211 110.212 258.679 74.6893 218.994 71.8457Z" fill="#FFC400" stroke="#FFEB52" stroke-width="8" stroke-linecap="round"/>
<path d="M8 132.643C8 60.0622 81.6 62.7936 139.552 62.8974C197.505 63.0011 270.538 61.1962 270.538 132.643V299.352C270.538 365.128 205.04 391.36 143.343 393.172C81.6456 394.985 8 360.024 8 299.352V132.643Z" stroke="#05451F" stroke-width="16"/>
<path d="M191.743 62.8822V42.1891C191.743 42.1891 192.337 9.67907 137.859 10.0024C83.3807 10.3257 85.0885 42.1891 85.0885 42.1891V62.8822" stroke="#05451F" stroke-width="20"/>
<path d="M888.57 201.667H825.526C824.686 195.792 822.962 190.489 820.357 185.758C817.751 181.027 814.304 176.983 810.017 173.626C805.73 170.269 800.645 167.712 794.761 165.957C788.961 164.126 782.531 163.211 775.47 163.211C762.945 163.211 752.144 165.996 743.065 171.566C734.071 177.136 727.136 185.186 722.261 195.716C717.47 206.246 715.074 218.988 715.074 233.944C715.074 249.509 717.512 262.557 722.387 273.087C727.346 283.541 734.281 291.438 743.191 296.779C752.186 302.044 762.819 304.677 775.091 304.677C781.984 304.677 788.246 303.876 793.878 302.273C799.594 300.671 804.596 298.344 808.883 295.291C813.254 292.163 816.826 288.386 819.6 283.96C822.458 279.458 824.433 274.384 825.526 268.738L888.57 269.081C887.477 279.458 884.157 289.683 878.609 299.755C873.145 309.827 865.622 319.022 856.039 327.339C846.457 335.58 834.773 342.142 820.987 347.025C807.286 351.908 791.567 354.35 773.831 354.35C750.462 354.35 729.532 349.696 711.039 340.387C692.63 331.001 678.088 317.343 667.413 299.412C656.738 281.481 651.4 259.658 651.4 233.944C651.4 208.153 656.822 186.292 667.665 168.361C678.509 150.43 693.177 136.81 711.67 127.501C730.162 118.192 750.883 113.537 773.831 113.537C789.465 113.537 803.923 115.521 817.204 119.489C830.486 123.38 842.17 129.103 852.257 136.657C862.344 144.135 870.539 153.329 876.844 164.241C883.148 175.152 887.057 187.628 888.57 201.667Z" fill="#FEAF01"/>
<path d="M766.783 263.14C744.798 266.351 738.103 283.575 732.374 294.982L737.622 293.199L740.351 288.135C741.324 288.565 742.359 288.858 743.421 289.004C769.954 290.617 779.532 252.547 779.532 252.547C776.844 256.931 759.925 256.47 747.727 258.003C735.529 259.535 730.119 268.869 729.844 273.4C729.983 276.621 731.29 279.709 733.549 282.151C742.662 261.674 766.783 263.14 766.783 263.14Z" fill="#FEAF01"/>
<path d="M964.846 207.54C949.217 199.735 953.521 188.093 952.295 177.303L955.969 180.274L956.662 185.118C957.567 185.062 958.482 185.134 959.375 185.331C981.08 191.872 963.743 223.123 963.743 223.123C962.883 218.833 963.001 216.153 953.692 211.332C944.382 206.511 942.802 197.469 943.916 193.773C944.975 191.245 946.931 189.167 949.457 187.885C950.72 206.909 964.846 207.54 964.846 207.54Z" fill="#FEAF01"/>
<path d="M1094.43 350.686H1037.47L1016.65 300.429H907.934L887.034 350.686H831.416L935.95 116.154H989.558L1094.43 350.686ZM962.363 180.544C947.907 180.544 936.188 191.678 936.188 205.411C936.189 215.93 943.064 224.923 952.778 228.557L935.161 259.071H989.565L971.947 228.557C981.662 224.923 988.539 215.931 988.539 205.411C988.539 191.678 976.82 180.544 962.363 180.544Z" fill="#FEAF01"/>
<path d="M445.139 285.9C468.151 279.958 476.525 258.007 481.441 244.447L473.233 246.903L470.645 254.74C469.568 254.352 468.439 254.127 467.296 254.073C438.962 255.008 432.686 299.267 432.686 299.267C435.091 294.005 453.101 292.763 465.895 289.749C478.689 286.736 483.478 275.565 483.307 270.388C482.83 266.742 481.126 263.369 478.479 260.83C470.897 285.049 445.139 285.9 445.139 285.9Z" fill="#FEAF01"/>
<path d="M581.389 356.109C562.626 356.109 544.645 353.652 527.446 348.738C510.247 343.601 496.399 337.012 485.901 328.971L504.328 288.095C514.38 295.243 526.218 301.162 539.843 305.853C553.692 310.32 567.652 312.553 581.724 312.553C592.445 312.553 601.044 311.548 607.522 309.538C614.223 307.304 619.137 304.289 622.264 300.492C625.391 296.695 626.955 292.339 626.955 287.425C626.955 281.171 624.498 276.257 619.584 272.683C614.67 268.886 608.192 265.871 600.151 263.637C592.11 261.18 583.175 258.946 573.347 256.936C563.743 254.702 554.027 252.022 544.199 248.895C534.594 245.768 525.771 241.747 517.73 236.833C509.689 231.919 503.1 225.442 497.962 217.401C493.048 209.36 490.592 199.085 490.592 186.577C490.592 173.175 494.165 161.002 501.313 150.057C508.684 138.889 519.629 130.066 534.147 123.588C548.889 116.888 567.317 113.537 589.43 113.537C604.172 113.537 618.69 115.324 632.985 118.898C647.281 122.248 659.901 127.386 670.845 134.31L654.093 175.52C643.148 169.266 632.204 164.687 621.259 161.784C610.314 158.656 599.593 157.093 589.095 157.093C578.596 157.093 569.997 158.321 563.296 160.778C556.595 163.235 551.793 166.474 548.889 170.495C545.986 174.292 544.534 178.759 544.534 183.896C544.534 189.927 546.991 194.841 551.905 198.638C556.819 202.212 563.296 205.116 571.337 207.35C579.378 209.583 588.201 211.817 597.806 214.05C607.634 216.284 617.35 218.853 626.955 221.756C636.783 224.66 645.717 228.569 653.758 233.483C661.799 238.397 668.277 244.875 673.191 252.916C678.328 260.957 680.897 271.12 680.897 283.405C680.897 296.583 677.211 308.645 669.84 319.589C662.469 330.534 651.413 339.357 636.671 346.058C622.152 352.759 603.725 356.109 581.389 356.109Z" fill="#FEAF01"/>
<path d="M376.153 208.02H489.063V250.235H376.153V208.02ZM380.173 304.512H507.825V348.068H326.231V113.537H503.47V157.093H380.173V304.512Z" fill="#FEAF01"/>
</svg>
